<?xml version="1.0" encoding="UTF-8" standalone="no"?>
<!DOCTYPE svg PUBLIC "-//W3C//DTD SVG 1.1//EN" "http://www.w3.org/Graphics/SVG/1.1/DTD/svg11.dtd">
<svg width="100%" height="100%" viewBox="0 0 1198 740" version="1.1" xmlns="http://www.w3.org/2000/svg" xmlns:xlink="http://www.w3.org/1999/xlink" xml:space="preserve" xmlns:serif="http://www.serif.com/" style="fill-rule:evenodd;clip-rule:evenodd;stroke-linejoin:round;stroke-miterlimit:2;">
    <g transform="matrix(1,0,0,1,-350.346105,-964.196876)">
        <g transform="matrix(512.349012,0,0,512.349012,359,1591)">
            <path d="M-0.017,0.22L0.11,-0.504L0.235,-0.504L0.238,-0.436C0.251,-0.451 0.266,-0.465 0.283,-0.477C0.299,-0.489 0.318,-0.499 0.339,-0.505C0.36,-0.512 0.383,-0.515 0.408,-0.515C0.451,-0.515 0.487,-0.505 0.518,-0.485C0.548,-0.465 0.571,-0.438 0.587,-0.403C0.602,-0.369 0.609,-0.329 0.607,-0.285C0.605,-0.244 0.596,-0.206 0.581,-0.17C0.566,-0.134 0.545,-0.102 0.519,-0.075C0.493,-0.048 0.463,-0.026 0.429,-0.011C0.396,0.004 0.36,0.012 0.321,0.012C0.297,0.012 0.276,0.009 0.256,0.002C0.237,-0.004 0.22,-0.013 0.206,-0.025C0.192,-0.036 0.181,-0.049 0.173,-0.064L0.123,0.22L-0.017,0.22ZM0.31,-0.11C0.338,-0.11 0.363,-0.117 0.385,-0.13C0.408,-0.144 0.426,-0.163 0.44,-0.186C0.453,-0.21 0.461,-0.237 0.462,-0.268C0.463,-0.292 0.46,-0.313 0.451,-0.332C0.443,-0.351 0.43,-0.366 0.413,-0.377C0.396,-0.388 0.376,-0.394 0.352,-0.394C0.324,-0.394 0.299,-0.387 0.276,-0.373C0.254,-0.359 0.236,-0.34 0.222,-0.316C0.208,-0.292 0.201,-0.264 0.2,-0.233C0.198,-0.209 0.202,-0.188 0.211,-0.169C0.219,-0.151 0.232,-0.136 0.249,-0.126C0.266,-0.115 0.286,-0.11 0.31,-0.11Z" style="fill:white;fill-rule:nonzero;"/>
        </g>
        <g transform="matrix(512.349012,0,0,512.349012,658.470986,1591)">
            <path d="M0.21,0.012C0.167,0.012 0.133,0.003 0.107,-0.016C0.081,-0.034 0.064,-0.06 0.055,-0.094C0.047,-0.127 0.046,-0.167 0.054,-0.213L0.105,-0.504L0.244,-0.504L0.196,-0.226C0.189,-0.188 0.192,-0.158 0.204,-0.137C0.215,-0.116 0.239,-0.106 0.275,-0.106C0.297,-0.106 0.317,-0.111 0.336,-0.121C0.355,-0.13 0.371,-0.145 0.385,-0.164C0.398,-0.183 0.407,-0.205 0.412,-0.232L0.46,-0.504L0.6,-0.504L0.512,-0L0.389,-0L0.39,-0.079C0.37,-0.051 0.345,-0.029 0.315,-0.013C0.284,0.004 0.249,0.012 0.21,0.012Z" style="fill:white;fill-rule:nonzero;"/>
        </g>
        <g transform="matrix(512.349012,0,0,512.349012,941.154282,1591)">
            <path d="M0.25,-0C0.21,-0 0.178,-0.006 0.153,-0.019C0.129,-0.032 0.112,-0.052 0.104,-0.078C0.095,-0.105 0.094,-0.139 0.101,-0.18L0.138,-0.387L0.054,-0.387L0.075,-0.504L0.159,-0.504L0.199,-0.643L0.324,-0.643L0.299,-0.504L0.431,-0.504L0.41,-0.387L0.278,-0.387L0.241,-0.178C0.238,-0.156 0.24,-0.14 0.249,-0.132C0.258,-0.123 0.273,-0.119 0.294,-0.119L0.364,-0.119L0.343,-0L0.25,-0Z" style="fill:white;fill-rule:nonzero;"/>
        </g>
        <g transform="matrix(512.349012,0,0,512.349012,1163.821762,1591)">
        </g>
        <g transform="matrix(2.445778,1.629327,-1.629327,2.445778,-258.806213,-3184.586324)">
            <g transform="matrix(315.277778,0,0,315.277778,1348.909722,1117)">
            </g>
            <text x="1196px" y="1117px" style="font-family:'DMSans-9ptRegular', 'DM Sans';font-size:315.278px;fill:rgb(255,93,0);">*</text>
        </g>
    </g>
</svg>
